#define antena_width 10
#define antena_height 10
#define antena_x_hot 0
#define antena_y_hot 0
static char antena_bits[] = {
  0x02,0xFD,0x01,0xFE,0xB5,0xFE,0xB5,0xFE,0x79,0xFE,0x31,0xFE,
  0x32,0xFD,0x30,0xFC,0x30,0xFC,0x00,0xFC
};