#define auto_width 16
#define auto_height 16
#define auto_x_hot 0
#define auto_y_hot 0
static char auto_bits[] = {
  0xFE,0xFF,0x02,0x80,0x82,0x83,0xC2,0x87,0xE2,0x8E,0x72,0x9C,
  0x32,0x98,0x32,0x98,0xF2,0x9F,0xF2,0x9F,0x32,0x98,0x32,0x98,
  0x32,0x98,0x02,0x80,0xFE,0xFF,0x00,0x00
};