#define centigrado8x16_width 8
#define centigrado8x16_height 16
#define centigrado8x16_x_hot 0
#define centigrado8x16_y_hot 0
static char centigrado8x16_bits[] = {
  0x07,0x05,0x07,0x00,0x1C,0x3E,0x77,0x63,0x03,0x03,0x03,0x03,
  0x63,0x77,0x3E,0x1C
};