#define dia_width 16
#define dia_height 16
#define dia_x_hot 0
#define dia_y_hot 0
static char dia_bits[] = {
  0x00,0x01,0x04,0x40,0x88,0x23,0x60,0x0C,0x10,0x10,0x10,0x10,
  0x88,0x22,0x0A,0xA0,0x48,0x24,0x90,0x13,0x10,0x10,0x60,0x0C,
  0x88,0x23,0x04,0x40,0x00,0x01,0x00,0x00
};