#define dianoche6x12_width 6
#define dianoche6x12_height 12
#define dianoche6x12_x_hot 0
#define dianoche6x12_y_hot 0
static char dianoche6x12_bits[] = {
  0xC0,0xD5,0xCE,0xDB,0xCE,0xD5,0xC0,0xCE,0xC3,0xD3,0xDF,0xCE
};