#define errorsensor10x16_width 10
#define errorsensor10x16_height 16
#define errorsensor10x16_x_hot 0
#define errorsensor10x16_y_hot 0
static char errorsensor10x16_bits[] = {
  0x50,0xFC,0x88,0xFC,0x20,0xFC,0x88,0xFC,0x20,0xFC,0x88,0xFC,
  0x20,0xFC,0x8A,0xFE,0x24,0xFD,0x88,0xFC,0x54,0xFD,0x22,0xFE,
  0x50,0xFC,0x8A,0xFE,0x04,0xFD,0x52,0xFE
};