#define hielo_width 16
#define hielo_height 16
#define hielo_x_hot 0
#define hielo_y_hot 0
static char hielo_bits[] = {
  0x28,0x28,0x10,0x10,0x28,0x28,0x40,0x04,0x80,0x02,0x82,0x82,
  0x04,0x41,0xFE,0xFF,0x04,0x41,0x82,0x82,0x80,0x02,0x40,0x04,
  0x28,0x28,0x10,0x10,0x28,0x28,0x00,0x00
};