#define listahoras76x5_width 76
#define listahoras76x5_height 5
#define listahoras76x5_x_hot 0
#define listahoras76x5_y_hot 0
static char listahoras76x5_bits[] = {
  0x8E,0x1C,0xC7,0x71,0x44,0xA8,0xD0,0xB9,0x73,0xF7,0xCA,0x10,
  0x01,0x51,0x66,0xAC,0x18,0xA1,0x42,0xF4,0x8A,0x18,0x07,0x71,
  0x44,0xE8,0x10,0xB9,0x72,0xF6,0x8A,0x10,0x04,0x41,0x44,0x88,
  0x10,0x89,0x12,0xF4,0x8E,0x1C,0x07,0x71,0x44,0x88,0x10,0xB9,
  0x73,0xF7
};