#define llama_width 16
#define llama_height 16
#define llama_x_hot 0
#define llama_y_hot 0
static char llama_bits[] = {
  0xE0,0x01,0x40,0x02,0x40,0x04,0x40,0x08,0x40,0x11,0x20,0x23,
  0x10,0x27,0x88,0x4F,0xC8,0x4F,0xE4,0x4F,0xE4,0x4F,0xC4,0x27,
  0x98,0x13,0x60,0x0C,0x80,0x03,0x00,0x00
};