#define manual_width 16
#define manual_height 16
#define manual_x_hot 0
#define manual_y_hot 0
static char manual_bits[] = {
  0xFE,0xFF,0x02,0x80,0x32,0x98,0x72,0x9C,0x72,0x9C,0xF2,0x9E,
  0xF2,0x9E,0xB2,0x9B,0xB2,0x9B,0x32,0x99,0x32,0x99,0x32,0x98,
  0x32,0x98,0x02,0x80,0xFE,0xFF,0x00,0x00
};