#define noche_width 16
#define noche_height 16
#define noche_x_hot 0
#define noche_y_hot 0
static char noche_bits[] = {
  0xC0,0x07,0xF0,0x03,0xF8,0x00,0xFC,0x00,0x7C,0x00,0x7E,0x00,
  0x4E,0x00,0xFE,0x80,0xFE,0xC0,0x7E,0xE3,0x9C,0x7F,0xFC,0x7F,
  0xF8,0x3F,0xF0,0x1F,0xC0,0x07,0x00,0x00
};