#define off20x10_width 20
#define off20x10_height 10
#define off20x10_x_hot 0
#define off20x10_y_hot 0
static char off20x10_bits[] = {
  0x00,0x00,0xF0,0x3C,0xDF,0xF7,0x7E,0xDF,0xF7,0x66,0xC3,0xF0,
  0x66,0xCF,0xF3,0x66,0xCF,0xF3,0x66,0xC3,0xF0,0x7E,0xC3,0xF0,
  0x3C,0xC3,0xF0,0x00,0x00,0xF0
};