#define on20x10_width 20
#define on20x10_height 10
#define on20x10_x_hot 0
#define on20x10_y_hot 0
static char on20x10_bits[] = {
  0x00,0x00,0xF0,0xFC,0x0C,0xF6,0xFE,0x1D,0xF6,0x86,0x3D,0xF6,
  0x86,0x6D,0xF6,0x86,0xCD,0xF6,0x86,0x8D,0xF7,0xFE,0x0D,0xF7,
  0xFC,0x0C,0xF6,0x00,0x00,0xF0
};