#define onoff_width 16
#define onoff_height 16
#define onoff_x_hot 0
#define onoff_y_hot 0
static char onoff_bits[] = {
  0x00,0x01,0xB0,0x1B,0xB8,0x3B,0x9C,0x73,0x8C,0x63,0x86,0xC3,
  0x86,0xC3,0x86,0xC3,0x06,0xC1,0x06,0xC0,0x0C,0x60,0x1C,0x70,
  0x38,0x38,0xF0,0x1F,0xC0,0x07,0x00,0x00
};