#define program_width 16
#define program_height 16
#define program_x_hot 0
#define program_y_hot 0
static char program_bits[] = {
  0x00,0x00,0x00,0x1E,0x00,0x0F,0x00,0x47,0x00,0x67,0x00,0x7F,
  0x80,0x7F,0xC0,0x3F,0xE0,0x03,0xF0,0x01,0xF8,0x38,0x7C,0x28,
  0x3E,0x38,0x1C,0x08,0x08,0x08,0x00,0x00
};