#define reloj_width 16
#define reloj_height 16
#define reloj_x_hot 0
#define reloj_y_hot 0
static char reloj_bits[] = {
  0xC0,0x07,0x30,0x19,0x08,0x21,0x04,0x41,0x04,0x49,0x02,0x85,
  0x02,0x83,0x0A,0xA1,0x02,0x80,0x02,0x80,0x04,0x40,0x04,0x40,
  0x08,0x21,0x30,0x18,0xC0,0x07,0x00,0x00
};