#define sensormove_width 10
#define sensormove_height 10
#define sensormove_x_hot 0
#define sensormove_y_hot 0
static char sensormove_bits[] = {
  0x00,0xFC,0x3E,0xFC,0x22,0xFE,0xA2,0xFE,0xAA,0xFE,0xBE,0xFE,
  0x80,0xFE,0x78,0xFE,0x00,0xFD,0xFC,0xFC
};