#define termometro10x16_width 10
#define termometro10x16_height 16
#define termometro10x16_x_hot 0
#define termometro10x16_y_hot 0
static char termometro10x16_bits[] = {
  0x70,0xFC,0x8A,0xFE,0x88,0xFC,0x8A,0xFE,0xA8,0xFC,0xAA,0xFE,
  0xA8,0xFC,0xAA,0xFE,0xA8,0xFC,0xAC,0xFD,0x74,0xFD,0xFA,0xFE,
  0xFA,0xFE,0x74,0xFD,0x8C,0xFD,0x70,0xFC
};