#define termometro_width 16
#define termometro_height 16
#define termometro_x_hot 0
#define termometro_y_hot 0
static char termometro_bits[] = {
  0x80,0x03,0x42,0x34,0x58,0x04,0x44,0x35,0x44,0x05,0x58,0x35,
  0x40,0x05,0x60,0x0D,0xA0,0x0B,0xD0,0x17,0xD0,0x17,0xD0,0x17,
  0xA0,0x0B,0x60,0x0C,0x80,0x03,0x00,0x00
};